<svg width="1200" height="411" viewBox="0 0 1200 411" fill="none" xmlns="http://www.w3.org/2000/svg">
<rect width="1200" height="411" fill="#EDEDED"/>
<path d="M316 242L302.438 131.938H323.375L331.438 206.812L338.625 131.938H359.562L346 242H316ZM352.2 242V132H373.45V242H352.2ZM369.4 242V132H392.025L402.15 184.688V132H423.4V242H401.9L390.9 187V242H369.4ZM445.975 243C438.017 243 431.6 240.521 426.725 235.562C421.892 230.604 419.475 223.667 419.475 214.75V164C419.475 153.333 421.579 145.167 425.787 139.5C430.037 133.833 436.933 131 446.475 131C451.683 131 456.308 131.958 460.35 133.875C464.433 135.792 467.642 138.667 469.975 142.5C472.308 146.292 473.475 151.083 473.475 156.875V175.875H451.6V159.625C451.6 156.333 451.183 154.125 450.35 153C449.517 151.833 448.225 151.25 446.475 151.25C444.433 151.25 443.058 152 442.35 153.5C441.642 154.958 441.287 156.917 441.287 159.375V214.438C441.287 217.479 441.725 219.625 442.6 220.875C443.517 222.125 444.808 222.75 446.475 222.75C448.35 222.75 449.662 221.979 450.412 220.438C451.204 218.896 451.6 216.896 451.6 214.438V194.625H473.725V215.438C473.725 225.104 471.287 232.125 466.412 236.5C461.537 240.833 454.725 243 445.975 243ZM468.3 242V132H512.3V153.25H490.675V174.688H511.425V195.375H490.675V220.562H513.738V242H468.3ZM508.25 242V132H530.875L541 184.688V132H562.25V242H540.75L529.75 187V242H508.25ZM568.637 242V153.125H555.575V132H603.7V153.125H590.637V242H568.637ZM640.475 243C631.683 243 624.954 240.354 620.288 235.062C615.663 229.729 613.35 222.042 613.35 212V159.75C613.35 150.333 615.642 143.188 620.225 138.312C624.85 133.438 631.6 131 640.475 131C649.35 131 656.079 133.438 660.663 138.312C665.288 143.188 667.6 150.333 667.6 159.75V212C667.6 222.042 665.267 229.729 660.6 235.062C655.975 240.354 649.267 243 640.475 243ZM640.663 222.75C643.996 222.75 645.663 219.521 645.663 213.062V159.375C645.663 153.958 644.038 151.25 640.788 151.25C637.121 151.25 635.288 154.021 635.288 159.562V213.188C635.288 216.604 635.704 219.062 636.538 220.562C637.371 222.021 638.746 222.75 640.663 222.75ZM663.675 242V132H693.487C701.487 132 707.3 133.958 710.925 137.875C714.592 141.75 716.425 148.167 716.425 157.125V161.938C716.425 167.104 715.487 171.292 713.612 174.5C711.779 177.708 708.967 179.812 705.175 180.812C710.133 182.062 713.446 185 715.112 189.625C716.821 194.208 717.675 199.812 717.675 206.438C717.675 213.562 717.008 219.792 715.675 225.125C714.342 230.458 711.925 234.604 708.425 237.562C704.925 240.521 699.946 242 693.487 242H663.675ZM685.175 173.438H689.675C691.717 173.438 693.029 172.646 693.612 171.062C694.196 169.479 694.487 167.583 694.487 165.375V154.312C694.487 150.771 692.925 149 689.8 149H685.175V173.438ZM687.362 222.625C693.071 222.625 695.925 219.917 695.925 214.5V200.75C695.925 197.625 695.446 195.167 694.487 193.375C693.571 191.542 691.821 190.625 689.237 190.625H685.175V222.5C686.092 222.583 686.821 222.625 687.362 222.625ZM712.125 242V132H756.125V153.25H734.5V174.688H755.25V195.375H734.5V220.562H757.562V242H712.125ZM752.075 242V132H774.7L784.825 184.688V132H806.075V242H784.575L773.575 187V242H752.075ZM800.15 242V222L825.337 152.25H802.587V132H848.525V151.25L822.9 221.75H847.462V242H800.15ZM839.725 242L850.35 132H887.662L898.1 242H877.287L875.725 224.25H862.475L861.1 242H839.725ZM864.037 206.688H874.037L869.225 150.75H868.225L864.037 206.688Z" fill="black"/>
<path d="M437.625 304.375C433.859 304.375 431.141 303.438 429.469 301.562C427.812 299.688 426.984 296.703 426.984 292.609V288.578H435.141V293.734C435.141 294.688 435.281 295.438 435.562 295.984C435.859 296.516 436.367 296.781 437.086 296.781C437.836 296.781 438.352 296.562 438.633 296.125C438.93 295.688 439.078 294.969 439.078 293.969C439.078 292.703 438.953 291.648 438.703 290.805C438.453 289.945 438.016 289.133 437.391 288.367C436.781 287.586 435.93 286.68 434.836 285.648L431.133 282.133C428.367 279.523 426.984 276.539 426.984 273.18C426.984 269.664 427.797 266.984 429.422 265.141C431.062 263.297 433.43 262.375 436.523 262.375C440.305 262.375 442.984 263.383 444.562 265.398C446.156 267.414 446.953 270.477 446.953 274.586H438.562V271.75C438.562 271.188 438.398 270.75 438.07 270.438C437.758 270.125 437.328 269.969 436.781 269.969C436.125 269.969 435.641 270.156 435.328 270.531C435.031 270.891 434.883 271.359 434.883 271.938C434.883 272.516 435.039 273.141 435.352 273.812C435.664 274.484 436.281 275.258 437.203 276.133L441.961 280.703C442.914 281.609 443.789 282.57 444.586 283.586C445.383 284.586 446.023 285.758 446.508 287.102C446.992 288.43 447.234 290.055 447.234 291.977C447.234 295.852 446.516 298.891 445.078 301.094C443.656 303.281 441.172 304.375 437.625 304.375ZM457.444 304.375C454.147 304.375 451.623 303.383 449.873 301.398C448.139 299.398 447.272 296.516 447.272 292.75V273.156C447.272 269.625 448.131 266.945 449.85 265.117C451.584 263.289 454.116 262.375 457.444 262.375C460.772 262.375 463.295 263.289 465.014 265.117C466.748 266.945 467.616 269.625 467.616 273.156V292.75C467.616 296.516 466.741 299.398 464.991 301.398C463.256 303.383 460.741 304.375 457.444 304.375ZM457.514 296.781C458.764 296.781 459.389 295.57 459.389 293.148V273.016C459.389 270.984 458.78 269.969 457.561 269.969C456.186 269.969 455.498 271.008 455.498 273.086V293.195C455.498 294.477 455.655 295.398 455.967 295.961C456.28 296.508 456.795 296.781 457.514 296.781ZM468.544 304V262.75H485.044V270.789H476.841V277.352H484.622V285.297H476.841V304H468.544ZM488.855 304V270.672H483.956V262.75H502.003V270.672H497.105V304H488.855ZM505.134 304L500.705 262.75H508.767L511.041 288.789L513.361 262.75H521.048L523.252 288.789L525.455 262.75H533.611L529.111 304H519.22L517.158 284.148L515.189 304H505.134ZM531.891 304L535.875 262.75H549.867L553.781 304H545.977L545.391 297.344H540.422L539.906 304H531.891ZM541.008 290.758H544.758L542.953 269.781H542.578L541.008 290.758ZM553.912 304V262.75H566.569C568.678 262.75 570.272 263.234 571.35 264.203C572.428 265.156 573.147 266.5 573.506 268.234C573.881 269.953 574.069 271.977 574.069 274.305C574.069 276.555 573.78 278.352 573.202 279.695C572.639 281.039 571.569 281.969 569.991 282.484C571.287 282.75 572.194 283.398 572.709 284.43C573.241 285.445 573.506 286.766 573.506 288.391V304H565.373V287.852C565.373 286.648 565.123 285.906 564.623 285.625C564.139 285.328 563.35 285.18 562.256 285.18V304H553.912ZM562.303 278.031H564.295C565.436 278.031 566.006 276.789 566.006 274.305C566.006 272.695 565.881 271.641 565.631 271.141C565.381 270.641 564.912 270.391 564.225 270.391H562.303V278.031ZM574.387 304V262.75H590.887V270.719H582.778V278.758H590.559V286.516H582.778V295.961H591.427V304H574.387ZM600.619 304V262.75H611.962C614.931 262.75 617.166 263.578 618.666 265.234C620.166 266.875 620.916 269.281 620.916 272.453V291.766C620.916 295.672 620.228 298.688 618.853 300.812C617.494 302.938 615.103 304 611.681 304H600.619ZM608.916 296.711H610.345C611.861 296.711 612.619 295.977 612.619 294.508V273.227C612.619 271.852 612.431 270.969 612.056 270.578C611.697 270.172 610.955 269.969 609.83 269.969H608.916V296.711ZM621.891 304V262.75H638.391V270.719H630.281V278.758H638.062V286.516H630.281V295.961H638.93V304H621.891ZM643.069 304L637.983 262.727H645.834L648.858 290.805L651.553 262.727H659.405L654.319 304H643.069ZM659.419 304V262.75H675.919V270.719H667.809V278.758H675.591V286.516H667.809V295.961H676.458V304H659.419ZM676.8 304V262.75H685.05V296.969H693.534V304H676.8ZM703.322 304.375C700.025 304.375 697.502 303.383 695.752 301.398C694.017 299.398 693.15 296.516 693.15 292.75V273.156C693.15 269.625 694.009 266.945 695.728 265.117C697.462 263.289 699.994 262.375 703.322 262.375C706.65 262.375 709.173 263.289 710.892 265.117C712.627 266.945 713.494 269.625 713.494 273.156V292.75C713.494 296.516 712.619 299.398 710.869 301.398C709.134 303.383 706.619 304.375 703.322 304.375ZM703.392 296.781C704.642 296.781 705.267 295.57 705.267 293.148V273.016C705.267 270.984 704.658 269.969 703.439 269.969C702.064 269.969 701.377 271.008 701.377 273.086V293.195C701.377 294.477 701.533 295.398 701.845 295.961C702.158 296.508 702.673 296.781 703.392 296.781ZM714.422 304V262.75H725.32C727.602 262.75 729.406 263.258 730.734 264.273C732.078 265.289 733.039 266.734 733.617 268.609C734.195 270.484 734.484 272.719 734.484 275.312C734.484 277.812 734.242 279.992 733.758 281.852C733.273 283.695 732.406 285.125 731.156 286.141C729.922 287.156 728.164 287.664 725.883 287.664H722.531V304H714.422ZM722.531 280.258H723C724.531 280.258 725.469 279.828 725.812 278.969C726.156 278.109 726.328 276.844 726.328 275.172C726.328 273.609 726.156 272.406 725.812 271.562C725.484 270.703 724.695 270.273 723.445 270.273H722.531V280.258ZM734.709 304V262.75H751.209V270.719H743.1V278.758H750.881V286.516H743.1V295.961H751.748V304H734.709ZM752.091 304V262.75H764.747C766.856 262.75 768.45 263.234 769.528 264.203C770.606 265.156 771.325 266.5 771.684 268.234C772.059 269.953 772.247 271.977 772.247 274.305C772.247 276.555 771.958 278.352 771.38 279.695C770.817 281.039 769.747 281.969 768.169 282.484C769.466 282.75 770.372 283.398 770.888 284.43C771.419 285.445 771.684 286.766 771.684 288.391V304H763.552V287.852C763.552 286.648 763.302 285.906 762.802 285.625C762.317 285.328 761.528 285.18 760.434 285.18V304H752.091ZM760.481 278.031H762.473C763.614 278.031 764.184 276.789 764.184 274.305C764.184 272.695 764.059 271.641 763.809 271.141C763.559 270.641 763.091 270.391 762.403 270.391H760.481V278.031Z" fill="black"/>
</svg>
